<?xml version="1.0" standalone="no"?>
<!DOCTYPE svg PUBLIC "-//W3C//DTD SVG 20010904//EN"
 "http://www.w3.org/TR/2001/REC-SVG-20010904/DTD/svg10.dtd">
<svg version="1.0" xmlns="http://www.w3.org/2000/svg"
 width="512.000000pt" height="512.000000pt" viewBox="0 0 512.000000 512.000000"
 preserveAspectRatio="xMidYMid meet">
<metadata>
Created by potrace 1.11, written by Peter Selinger 2001-2013
</metadata>
<g transform="translate(0.000000,512.000000) scale(0.100000,-0.100000)"
fill="#000000" stroke="none">
<path d="M1718 4924 c-61 -19 -140 -79 -189 -144 -70 -94 -69 -77 -69 -807 l0
-653 -135 0 -135 0 0 119 c0 129 -10 158 -73 205 -27 20 -42 21 -314 24 -274
3 -287 2 -329 -19 -30 -14 -52 -35 -69 -63 -23 -39 -25 -54 -25 -153 l0 -111
-42 -7 c-131 -22 -242 -105 -300 -223 l-33 -67 0 -1275 0 -1275 23 -57 c33
-81 108 -160 190 -200 l67 -33 2255 -3 c1979 -2 2261 0 2306 13 70 20 166 93
208 157 70 107 67 26 64 1419 l-3 1254 -33 67 c-56 115 -169 197 -299 218 -32
6 -298 10 -590 10 l-532 0 -3 673 -3 672 -28 55 c-38 73 -108 144 -182 183
l-60 32 -810 2 c-682 2 -817 0 -857 -13z m1498 -313 c23 -10 52 -34 65 -52 21
-30 24 -46 27 -151 3 -107 2 -121 -19 -158 -13 -23 -38 -50 -55 -61 -31 -19
-50 -19 -687 -17 l-656 3 -35 34 c-52 50 -58 75 -54 203 3 100 6 117 27 147
13 18 42 42 65 52 39 17 78 19 661 19 583 0 622 -2 661 -19z m-456 -1556 c150
-23 235 -50 385 -125 459 -227 735 -672 735 -1185 0 -273 -73 -511 -227 -744
-70 -105 -242 -279 -339 -344 -249 -164 -467 -231 -754 -231 -226 0 -402 39
-585 131 -384 192 -639 527 -721 949 -38 190 -20 460 43 654 150 466 580 828
1068 899 96 14 292 12 395 -4z"/>
<path d="M2453 2600 c-262 -37 -479 -173 -622 -392 -155 -237 -174 -582 -45
-843 76 -156 233 -313 389 -390 40 -19 117 -47 171 -61 89 -23 113 -25 239
-21 149 5 246 27 360 84 190 95 357 288 424 489 61 183 63 361 5 547 -86 275
-324 498 -604 566 -101 24 -231 33 -317 21z"/>
</g>
</svg>
